<svg xmlns="http://www.w3.org/2000/svg" xmlns:xlink="http://www.w3.org/1999/xlink" version="1.1" x="0px" y="0px" viewBox="0 0 512 512" style="enable-background:new 0 0 512 512;" xml:space="preserve"><g><path d="M448.533,28H63.467c-27.57,0-50,22.43-50,50v356c0,27.57,22.43,50,50,50h385.066c27.57,0,50-22.43,50-50V78   C498.533,50.43,476.104,28,448.533,28z M63.467,48h385.066c16.542,0,30,13.458,30,30v76.44H33.467V78   C33.467,61.458,46.925,48,63.467,48z M448.533,464H63.467c-16.542,0-30-13.458-30-30V174.44h445.066V434   C478.533,450.542,465.075,464,448.533,464z"></path><path d="M163.718,133.02c17.535,0,31.8-14.266,31.8-31.8s-14.265-31.8-31.8-31.8s-31.8,14.266-31.8,31.8   S146.183,133.02,163.718,133.02z M163.718,89.42c6.506,0,11.8,5.293,11.8,11.8s-5.293,11.8-11.8,11.8   c-6.507,0-11.8-5.293-11.8-11.8S157.211,89.42,163.718,89.42z"></path><path d="M238.515,133.02c17.535,0,31.8-14.266,31.8-31.8s-14.265-31.8-31.8-31.8s-31.8,14.266-31.8,31.8   S220.98,133.02,238.515,133.02z M238.515,89.42c6.506,0,11.8,5.293,11.8,11.8s-5.293,11.8-11.8,11.8s-11.8-5.293-11.8-11.8   S232.009,89.42,238.515,89.42z"></path><path d="M88.92,133.02c17.535,0,31.8-14.266,31.8-31.8s-14.265-31.8-31.8-31.8s-31.8,14.266-31.8,31.8S71.386,133.02,88.92,133.02z    M88.92,89.42c6.506,0,11.8,5.293,11.8,11.8s-5.293,11.8-11.8,11.8c-6.507,0-11.8-5.293-11.8-11.8S82.414,89.42,88.92,89.42z"></path></g></svg>