<svg xmlns="http://www.w3.org/2000/svg" xmlns:xlink="http://www.w3.org/1999/xlink" version="1.1" x="0px" y="0px" viewBox="0 0 36 36" style="enable-background:new 0 0 36 36;" xml:space="preserve"><g><path d="M2,24.5h12.35L3.72,31.58c-0.23,0.15-0.29,0.46-0.14,0.69C3.68,32.42,3.84,32.5,4,32.5c0.1,0,0.19-0.03,0.28-0.08   l11.87-7.92h3.7l11.87,7.92c0.09,0.06,0.18,0.08,0.28,0.08c0.16,0,0.32-0.08,0.42-0.22c0.15-0.23,0.09-0.54-0.14-0.69L21.65,24.5   H27h4.5H34c0.28,0,0.5-0.22,0.5-0.5V4c0-0.28-0.22-0.5-0.5-0.5H2C1.72,3.5,1.5,3.72,1.5,4v20C1.5,24.28,1.72,24.5,2,24.5z M31,23.5   h-3.5V22H31V23.5z M2.5,4.5h31v19H32v-2c0-0.28-0.22-0.5-0.5-0.5H27c-0.28,0-0.5,0.22-0.5,0.5v2h-24V4.5z"></path></g></svg>