<?xml version="1.0" encoding="utf-8"?>
<svg version="1.1" xmlns:xlink="http://www.w3.org/1999/xlink" width="35px" height="35px" xmlns="http://www.w3.org/2000/svg">
  <g transform="matrix(1 0 0 1 -303 -784 )">
    <path d="M 30.506350000000005 15.784999999999998  C 30.57635 16.345  30.628849999999996 16.905  30.628849999999996 17.5  C 30.628849999999996 18.095  30.57635 18.655  30.506350000000005 19.215  L 34.19885 22.102500000000003  C 34.531349999999996 22.365000000000002  34.618849999999995 22.837500000000002  34.40885 23.2225  L 30.908849999999997 29.2775  C 30.751349999999995 29.5575  30.453850000000003 29.715  30.15635 29.715  C 30.05135 29.715  29.946350000000002 29.697499999999998  29.84135 29.662499999999998  L 25.48385 27.912499999999998  C 24.57385 28.595  23.59385 29.189999999999998  22.52635 29.6275  L 21.86135 34.26499999999999  C 21.80885 34.685  21.44135 35  21.00385 35  L 14.00385 35  C 13.56628 35  13.198780000000001 34.685  13.146279999999999 34.26499999999999  L 12.481280000000002 29.6275  C 11.41378 29.189999999999998  10.433779999999999 28.612500000000004  9.52378 27.912499999999998  L 5.16628 29.662499999999998  C 5.07878 29.697499999999998  4.97378 29.715  4.86878 29.715  C 4.553779999999999 29.715  4.256279999999999 29.5575  4.09878 29.2775  L 0.5987799999999996 23.2225  C 0.38878000000000024 22.837500000000002  0.4762799999999999 22.365000000000002  0.8087799999999998 22.102500000000003  L 4.50128 19.215  C 4.43128 18.655  4.37878 18.077499999999997  4.37878 17.5  C 4.37878 16.9225  4.43128 16.345  4.50128 15.784999999999998  L 0.8087799999999998 12.897499999999997  C 0.4762799999999999 12.635000000000002  0.37127999999999983 12.1625  0.5987799999999996 11.7775  L 4.09878 5.722499999999999  C 4.256279999999999 5.442500000000001  4.553779999999999 5.284999999999999  4.85128 5.284999999999999  C 4.9562800000000005 5.284999999999999  5.061279999999999 5.302500000000001  5.16628 5.3374999999999995  L 9.52378 7.0874999999999995  C 10.433779999999999 6.405  11.41378 5.8100000000000005  12.481280000000002 5.3725000000000005  L 13.146279999999999 0.7349999999999999  C 13.198780000000001 0.3150000000000003  13.56628 0  14.00385 0  L 21.00385 0  C 21.44135 0  21.80885 0.3150000000000003  21.86135 0.7349999999999999  L 22.52635 5.3725000000000005  C 23.59385 5.8100000000000005  24.57385 6.387500000000001  25.48385 7.0874999999999995  L 29.84135 5.3374999999999995  C 29.92885 5.302500000000001  30.033849999999997 5.284999999999999  30.13885 5.284999999999999  C 30.453850000000003 5.284999999999999  30.751349999999995 5.442500000000001  30.908849999999997 5.722499999999999  L 34.40885 11.7775  C 34.618849999999995 12.1625  34.531349999999996 12.635000000000002  34.19885 12.897499999999997  L 30.506350000000005 15.784999999999998  Z M 27.04135 18.7775  C 27.09385 18.252499999999998  27.12885 17.867500000000003  27.12885 17.5  C 27.12885 17.132499999999997  27.11135 16.765  27.04135 16.2225  L 26.79635 14.245000000000001  L 28.353850000000005 13.02  L 30.226350000000004 11.5325  L 29.00135 9.415000000000001  L 26.77885 10.3075  L 24.92385 11.06  L 23.33135 9.835  C 22.63135 9.31  21.93135 8.9075  21.17885 8.5925  L 19.32385 7.840000000000001  L 19.04385 5.862499999999999  L 18.71135 3.5  L 16.27885 3.5  L 15.92885 5.862499999999999  L 15.64885 7.840000000000001  L 13.79378 8.5925  C 13.076280000000002 8.89  12.358780000000001 9.31  11.60628 9.87  L 10.03128 11.06  L 8.21128 10.325000000000001  L 5.988779999999999 9.4325  L 4.76378 11.549999999999999  L 6.65378 13.02  L 8.21128 14.245000000000001  L 7.966279999999999 16.2225  C 7.913780000000001 16.747500000000002  7.87878 17.150000000000002  7.87878 17.5  C 7.87878 17.85  7.913780000000001 18.252499999999998  7.966279999999999 18.795  L 8.21128 20.772499999999997  L 6.65378 21.997500000000002  L 4.76378 23.4675  L 5.988779999999999 25.585000000000004  L 8.21128 24.6925  L 10.066279999999999 23.939999999999998  L 11.65878 25.165  C 12.358780000000001 25.689999999999998  13.058780000000002 26.0925  13.81128 26.4075  L 15.666349999999998 27.16  L 15.946349999999999 29.137499999999996  L 16.27885 31.5  L 18.728849999999998 31.5  L 19.07885 29.137499999999996  L 19.35885 27.16  L 21.213849999999997 26.4075  C 21.93135 26.110000000000003  22.64885 25.689999999999998  23.401349999999997 25.13  L 24.976350000000004 23.939999999999998  L 26.79635 24.675000000000004  L 29.01885 25.5675  L 30.24385 23.450000000000003  L 28.353850000000005 21.98  L 26.79635 20.755  L 27.04135 18.7775  Z M 10.503779999999999 17.5  C 10.503779999999999 13.632499999999999  13.636280000000003 10.5  17.503850000000003 10.5  C 21.37135 10.5  24.503849999999996 13.632499999999999  24.503849999999996 17.5  C 24.503849999999996 21.3675  21.37135 24.5  17.503850000000003 24.5  C 13.636280000000003 24.5  10.503779999999999 21.3675  10.503779999999999 17.5  Z M 17.503850000000003 14  C 15.578850000000001 14  14.00385 15.575000000000001  14.00385 17.5  C 14.00385 19.424999999999997  15.578850000000001 21  17.503850000000003 21  C 19.42885 21  21.00385 19.424999999999997  21.00385 17.5  C 21.00385 15.575000000000001  19.42885 14  17.503850000000003 14  Z " fill-rule="nonzero" fill="#969696" stroke="none" transform="matrix(1 0 0 1 303 784 )" />
  </g>
</svg>