<?xml version="1.0" encoding="utf-8"?>
<svg version="1.1" xmlns:xlink="http://www.w3.org/1999/xlink" width="25px" height="25px" xmlns="http://www.w3.org/2000/svg">
  <g transform="matrix(1 0 0 1 -40 -18 )">
    <path d="M 21.52783203125 17.738898026315788  C 20.727294921875 17.738710649671056  19.951416015625 18.010234374999996  19.33134765625 18.50754523026316  C 18.711279296875 19.00486567982456  18.28515625 19.697478070175436  18.124951171875 20  L 6.874951171875001 20  C 6.785878906250001 20.039438048245618  6.613642578125001 19.63185307017544  6.36796875 19.26722176535088  L 19.611132812500003 6.263109923245616  C 20.1818359375 6.627016858552634  20.847265625 6.821354166666668  21.527832031250004 6.822649396929825  C 22.408251953125 6.822462020285087  23.255908203125003 6.493593750000001  23.898876953125004 5.902556195175439  C 24.542041015625003 5.311739309210527  24.932470703125002 4.50274808114035  24.991406250000004 3.6396450109649128  C 25.050341796875003 2.776541940789474  24.773398437500003 1.923560855263158  24.216455078125005 1.2536389802631582  C 23.659521484375006 0.5835252192982461  22.864160156250005 0.14636101973684254  21.991552734375002 0.03074972587719341  C 21.118945312500003 -0.0850582510964908  20.234130859375004 0.1293167489035092  19.516406250000003 0.6302014802631584  C 18.798486328125 1.1312637061403512  18.301220703125 1.8813939144736846  18.125000000000004 3  L 6.875000000000002 3  C 6.643447265625002 1.6147683662280703  5.861816406250002 0.6869997258771933  4.791015625000002 0.2554481907894738  C 3.720019531250002 -0.17629523026315774  2.5004882812500018 -0.05524396929824549  1.5389648437500014 0.5781332236842107  C 0.5774902343750015 1.2115008223684212  0.0006835937500013559 2.2740213815789474  0.0006835937500013559 3.4112815241228076  C 0.0006835937500013559 4.548733552631579  0.5774414062500013 5.611206140350878  1.5389648437500014 6.244573739035087  C 2.500439453125001 6.877941337719299  3.720019531250002 6.999021381578947  4.791015625000002 6.567258771929824  C 5.861816406250002 6.135515350877192  6.643457031250002 5.2079385964912275  6.875000000000002 4  L 18.125000000000004 4  C 18.214453125000002 4.520996436403508  18.384018554687504 4.928168859649121  18.625097656250002 5.294335252192981  L 5.388769531250004 18.305163103070175  C 4.556591796875003 17.76418859649123  3.5275878906250044 17.60113349780702  2.5643554687500036 17.85768023574561  C 1.601123046875004 18.114217379385963  0.7968261718750039 18.765588678728072  0.3565917968750037 19.645577713815786  C -0.08362304687499628 20.52537486293859  -0.11700195312499631 21.5488945997807  0.26465820312500365 22.454884183114036  C 0.6463183593750037 23.360729851973687  1.4062109375000038 24.06154536732456  2.350742187500004 24.378445038377194  C 3.295078125000004 24.695320723684212  4.332675781250004 24.597502055921055  5.198593750000004 24.110293996710524  C 6.064511718750004 23.622903645833333  6.675253906250004 22.793140762061405  6.874960937500004 21.832415707236844  L 18.124960937500003 21.832415707236844  C 18.301201171875 22.6801679002193  18.798447265625004 23.43029810855263  19.516367187500002 23.931360334429826  C 20.234091796875003 24.432230674342108  21.118906250000006 24.64661526864035  21.991513671875 24.53081208881579  C 22.86412109375 24.415191200657897  23.659482421875 23.978036595394737  24.216416015625004 23.307922834429824  C 24.773349609375003 22.638000959429828  25.050302734375002 21.78501987390351  24.991367187500003 20.92191680372807  C 24.932431640625 20.05881373355263  24.5419970703125 19.249870476973683  23.898837890625003 18.659005619517544  C 23.255869140625002 18.067996847587718  22.40826171875 17.73910430372807  21.527792968750003 17.738912417763157  Z M 4.94541015625 4.858744517543859  C 4.5547900390625005 5.24251644736842  4.024755859375 5.458196271929823  3.472167968750001 5.458196271929823  C 2.919824218750001 5.458196271929823  2.389746093750001 5.2425116502192965  1.9991210937500008 4.858744517543859  C 1.6084960937500008 4.47497738486842  1.3889648437500004 3.9542420504385953  1.3889648437500004 3.4113486842105254  C 1.3889648437500004 2.868695175438596  1.6085009765625005 2.347916666666666  1.9991210937500008 1.9641447368421046  C 2.3897412109375007 1.5803728070175427  2.9197753906250004 1.3646929824561393  3.472167968750001 1.3646929824561393  C 4.024707031250001 1.3646929824561393  4.55478515625 1.5803776041666655  4.94541015625 1.9641447368421046  C 5.33603515625 2.347911869517543  5.5555664062500005 2.8686472039473676  5.5555664062500005 3.4113486842105254  C 5.5555664062500005 3.954194078947368  5.336030273437501 4.4749725877192965  4.94541015625 4.858744517543859  Z M 19.4443359375 3.4113486842105245  C 19.4443359375 2.868695175438595  19.6638720703125 2.347916666666665  20.0544921875 1.9641447368421037  C 20.4451123046875 1.5803728070175425  20.975146484375003 1.3646929824561387  21.527734375 1.3646929824561387  C 22.080078125000004 1.3646929824561387  22.610156250000003 1.5803776041666648  23.000781250000003 1.9641447368421037  C 23.391406250000003 2.3479118695175423  23.610937500000002 2.8686472039473667  23.610937500000002 3.4113486842105245  C 23.610937500000002 3.9541940789473666  23.391401367187502 4.4749725877192965  23.000781250000003 4.858744517543858  C 22.610161132812504 5.242516447368419  22.080126953125003 5.458196271929823  21.527734375 5.458196271929823  C 21.135009765625 5.457071916118419  20.75068359375 5.347075109649121  20.418798828125002 5.140572231359648  C 20.087109375 4.934256441885963  19.821435546875 4.639845805921051  19.652636718750003 4.291524808114033  C 19.517407226562504 4.017185444078946  19.446259765625 3.7164425712719282  19.44435546875 3.4113438870614012  Z M 3.472167968750001 23.197190241228068  C 2.7279296875000005 23.197190241228068  2.0401367187500004 22.80704769736842  1.6680175781250008 22.173862390350873  C 1.2958935546875008 21.540494791666664  1.2958935546875008 20.760382401315788  1.6680175781250008 20.127014802631578  C 2.0401416015625005 19.493839089912278  2.727929687500001 19.103686951754383  3.472167968750001 19.103686951754383  C 3.782685546875001 19.105560862116228  4.088818359375001 19.1754570997807  4.3680664062500005 19.308314144736837  C 4.798935546875001 19.5067578125  5.1453125 19.847033991228074  5.3473144531250005 20.270382401315786  C 5.3820283203125 20.333157894736843  5.410068359375001 20.399492872807016  5.4306640625 20.468264802631577  C 5.597177734374999 20.908254523026315  5.597177734374999 21.39267543859649  5.4306640625 21.83262198464912  C 5.287421875 22.230823739035085  5.0222998046875 22.57560444078947  4.671533203125 22.819971217105262  C 4.3209619140625 23.064328399122804  3.9020996093750004 23.196058114035086  3.472216796875 23.197185444078947  Z M 21.52802275390625 23.197190241228068  C 21.098105761718745 23.196065885416665  20.679243457031248 23.064333196271928  20.328706347656247 22.819976014254383  C 19.977944628906247 22.57561883223684  19.712837207031246 22.230838130482454  19.569575488281245 21.832626781798243  C 19.403061816406247 21.39263706140351  19.403061816406247 20.908216145833332  19.569575488281245 20.468269599780704  C 19.740283496093745 19.99380276864035  20.082856738281247 19.59782689144737  20.531831347656247 19.35590666118421  C 20.980820605468743 19.113986430921052  21.504780566406247 19.04296943530702  22.003755175781244 19.156335663377195  C 22.502534472656244 19.269893777412285  22.941401660156245 19.559972587719297  23.236470019531243 19.971083470394742  C 23.531538378906244 20.382213541666665  23.66219267578124 20.885899808114036  23.603442675781245 21.38566680372807  C 23.544507128906243 21.885433799342106  23.300366503906243 22.346391858552632  22.917554003906243 22.68051329495614  C 22.53474150390624 23.014634731359653  22.039966113281242 23.198653371710527  21.528052050781245 23.19716625548246  Z " fill-rule="nonzero" fill="#ffffff" stroke="none" transform="matrix(1 0 0 1 40 18 )" />
  </g>
</svg>