<svg width="100" height="100" viewBox="0 0 100 100" fill="none" xmlns="http://www.w3.org/2000/svg">
<path d="M9.45519 9.99988C5.46522 9.99988 2.2229 13.2445 2.2229 17.2359V82.7634C2.2229 86.7547 5.46522 89.9999 9.45519 89.9999H90.5447C94.5349 89.9999 97.7778 86.7547 97.7778 82.7634V17.2359C97.7778 13.2445 94.5349 9.99988 90.5447 9.99988H9.45519ZM9.45519 11.9901H90.5447C93.4658 11.9901 95.7872 14.3102 95.7872 17.235V82.7625C95.7872 85.6859 93.4643 88.0082 90.5447 88.0082H9.45519C6.53407 88.0082 4.21319 85.6854 4.21319 82.7625V17.235C4.21319 14.3116 6.5332 11.9901 9.45519 11.9901ZM15.2922 19.3331C13.0066 19.3331 11.1334 21.2057 11.1334 23.4933V66.7176C11.1335 66.9815 11.2383 67.2346 11.4249 67.4212C11.6116 67.6078 11.8646 67.7126 12.1285 67.7127H87.871C88.1349 67.7126 88.388 67.6078 88.5746 67.4212C88.7612 67.2346 88.866 66.9815 88.8661 66.7176V23.4933C88.8661 21.2077 86.9935 19.3331 84.7073 19.3331H15.2922ZM15.2922 21.3233H84.7082C85.927 21.3233 86.8762 22.2725 86.8762 23.4913V42.6535C86.7193 42.5705 86.5431 42.531 86.3657 42.539H82.4914L78.1674 30.928C78.0967 30.7373 77.9694 30.5729 77.8025 30.4568C77.6357 30.3406 77.4372 30.2783 77.2339 30.2783C77.0306 30.2783 76.8321 30.3406 76.6653 30.4568C76.4984 30.5729 76.3711 30.7373 76.3004 30.928L71.9764 42.539H68.1023C67.9001 42.5387 67.7026 42.6001 67.5361 42.7149C67.3696 42.8296 67.242 42.9923 67.1702 43.1814L63.5394 52.7527L55.3364 30.926C55.2659 30.7382 55.1402 30.5761 54.9759 30.4609C54.8117 30.3458 54.6165 30.283 54.4159 30.2807C54.211 30.2785 54.0105 30.3396 53.8416 30.4556C53.6728 30.5716 53.5438 30.7369 53.4724 30.9289L49.1481 42.5399H45.2742H40.7088C40.4886 42.5398 40.2747 42.6126 40.1003 42.747C39.926 42.8814 39.8011 43.0698 39.7452 43.2827L36.0661 57.2914L27.9629 30.9839C27.902 30.7851 27.7804 30.6104 27.6151 30.4842C27.4499 30.3581 27.2492 30.2868 27.0414 30.2805C26.8336 30.2741 26.629 30.333 26.4564 30.4489C26.2837 30.5647 26.1517 30.7317 26.0788 30.9264L21.7548 42.5375H17.8804H13.3155C13.2481 42.537 13.1809 42.5433 13.1148 42.5564V23.5073C13.1148 22.2884 14.064 21.3392 15.2828 21.3392L15.2922 21.3233ZM54.4119 34.1047L62.6071 55.9083C62.6785 56.0972 62.8056 56.2599 62.9716 56.3749C63.1377 56.4898 63.3347 56.5515 63.5367 56.5519C63.7386 56.5522 63.9358 56.4911 64.1022 56.3767C64.2686 56.2622 64.3963 56.0999 64.4683 55.9112L68.79 44.5175H72.6684C72.8713 44.5173 73.0693 44.4552 73.2358 44.3393C73.4024 44.2235 73.5296 44.0596 73.6004 43.8694L77.233 34.1156L80.8656 43.8694C80.9364 44.0596 81.0636 44.2235 81.2302 44.3394C81.3968 44.4552 81.5948 44.5174 81.7977 44.5175H86.3635C86.5408 44.5256 86.717 44.4861 86.8739 44.4031V65.7344H13.1219V44.5155C13.188 44.5285 13.2552 44.5348 13.3226 44.5343H17.8875H22.453C22.6559 44.5341 22.8539 44.472 23.0205 44.3562C23.1871 44.2403 23.3143 44.0764 23.3851 43.8862L26.9284 34.3712L35.198 61.2165C35.261 61.423 35.3895 61.6034 35.5641 61.7305C35.7387 61.8576 35.9498 61.9245 36.1658 61.9211C36.3817 61.9177 36.5906 61.8441 36.7611 61.7116C36.9316 61.579 37.0543 61.3947 37.1108 61.1862L41.4813 44.5434H45.2791H49.8446C50.0475 44.5432 50.2454 44.4811 50.412 44.3652C50.5786 44.2494 50.7058 44.0854 50.7766 43.8953L54.4119 34.1047ZM15.4704 73.5205C13.0844 73.5205 11.1334 75.4735 11.1334 77.8583C11.1334 80.2443 13.0835 82.1972 15.4704 82.1972H35.5195C37.9055 82.1972 39.8571 80.2443 39.8571 77.8583C39.8571 75.4723 37.904 73.5205 35.5195 73.5205H15.4704ZM53.286 73.5205C50.9029 73.5205 48.9487 75.4735 48.9487 77.8583C48.9487 80.2414 50.9017 82.1972 53.286 82.1972C55.6691 82.1972 57.6232 80.2414 57.6232 77.8583C57.6232 75.4752 55.6702 73.5205 53.286 73.5205ZM68.9624 73.5205C66.5793 73.5205 64.6257 75.4735 64.6257 77.8583C64.6257 80.2414 66.5787 82.1972 68.9624 82.1972C71.3455 82.1972 73.2999 80.2414 73.2999 77.8583C73.2999 75.4752 71.3469 73.5205 68.9624 73.5205ZM84.5295 73.5205C82.1464 73.5205 80.1925 75.4735 80.1925 77.8583C80.1925 80.2414 82.1456 82.1972 84.5295 82.1972C86.9126 82.1972 88.867 80.2414 88.867 77.8583C88.867 75.4752 86.9141 73.5205 84.5295 73.5205ZM15.4704 75.5108H35.5195C36.8358 75.5108 37.8654 76.5402 37.8654 77.8594C37.8654 79.1786 36.8358 80.2082 35.5195 80.2082H15.4704C14.154 80.2082 13.1245 79.1786 13.1245 77.8594C13.1245 76.5402 14.154 75.5108 15.4704 75.5108ZM53.286 75.5108C54.5937 75.5108 55.6318 76.5489 55.6318 77.8594C55.6318 79.1671 54.5937 80.2082 53.286 80.2082C51.9783 80.2082 50.9401 79.17 50.9401 77.8594C50.9401 76.5517 51.9783 75.5108 53.286 75.5108ZM68.9624 75.5108C70.2701 75.5108 71.3082 76.5489 71.3082 77.8594C71.3082 79.1671 70.2701 80.2082 68.9624 80.2082C67.6547 80.2082 66.6165 79.17 66.6165 77.8594C66.6165 76.5517 67.6547 75.5108 68.9624 75.5108ZM84.5295 75.5108C85.8372 75.5108 86.8753 76.5489 86.8753 77.8594C86.8753 79.1671 85.8372 80.2082 84.5295 80.2082C83.2218 80.2082 82.1837 79.17 82.1837 77.8594C82.1837 76.5517 83.2218 75.5108 84.5295 75.5108Z" fill="black" stroke="black"/>
</svg>
