<?xml version="1.0" encoding="utf-8"?>
<svg version="1.1" xmlns:xlink="http://www.w3.org/1999/xlink" width="35px" height="28px" xmlns="http://www.w3.org/2000/svg">
  <g transform="matrix(1 0 0 1 -24 -20 )">
    <path d="M 34.56705729166667 22.815625  C 34.855685763888886 23.092708333333334  35 23.420833333333334  35 23.8  L 35 26.599999999999998  C 35 26.979166666666664  34.855685763888886 27.307291666666664  34.56705729166667 27.584374999999998  C 34.27842881944445 27.861458333333335  33.93663194444445 28  33.54166666666667 28  L 1.4583333333333333 28  C 1.0633680555555556 28  0.7215711805555556 27.861458333333335  0.4329427083333333 27.584374999999998  C 0.1443142361111111 27.307291666666664  0 26.979166666666664  0 26.599999999999998  L 0 23.8  C 0 23.420833333333334  0.1443142361111111 23.092708333333334  0.4329427083333333 22.815625  C 0.7215711805555556 22.538541666666667  1.0633680555555556 22.400000000000002  1.4583333333333333 22  L 33.54166666666667 22  C 33.93663194444445 22.400000000000002  34.27842881944445 22.538541666666667  34.56705729166667 22.815625  Z M 34.56705729166667 11.615624999999998  C 34.855685763888886 11.892708333333331  35 12.220833333333331  35 12.599999999999998  L 35 15.400000000000002  C 35 15.779166666666665  34.855685763888886 16.107291666666665  34.56705729166667 16.384375000000002  C 34.27842881944445 16.661458333333332  33.93663194444445 16.8  33.54166666666667 16.8  L 1.4583333333333333 16.8  C 1.0633680555555556 16.8  0.7215711805555556 16.661458333333332  0.4329427083333333 16.384375000000002  C 0.1443142361111111 16.107291666666665  0 15.779166666666665  0 15.400000000000002  L 0 12.599999999999998  C 0 12.220833333333331  0.1443142361111111 11.892708333333331  0.4329427083333333 11.615624999999998  C 0.7215711805555556 11.338541666666668  1.0633680555555556 11.200000000000001  1.4583333333333333 11.200000000000001  L 33.54166666666667 11.200000000000001  C 33.93663194444445 11.200000000000001  34.27842881944445 11.338541666666668  34.56705729166667 11.615624999999998  Z M 34.56705729166667 0.41562500000000124  C 34.855685763888886 0.6927083333333313  35 1.0208333333333313  35 1.4000000000000012  L 35 4.200000000000001  C 35 4.579166666666664  34.855685763888886 4.907291666666664  34.56705729166667 5.184375000000001  C 34.27842881944445 5.461458333333331  33.93663194444445 5.599999999999999  33.54166666666667 6  L 1.4583333333333333 6  C 1.0633680555555556 5.599999999999999  0.7215711805555556 5.461458333333331  0.4329427083333333 5.184375000000001  C 0.1443142361111111 4.907291666666664  0 4.579166666666664  0 4.200000000000001  L 0 1.4000000000000012  C 0 1.0208333333333313  0.1443142361111111 0.6927083333333313  0.4329427083333333 0.41562500000000124  C 0.7215711805555556 0.138541666666665  1.0633680555555556 0  1.4583333333333333 0  L 33.54166666666667 0  C 33.93663194444445 0  34.27842881944445 0.138541666666665  34.56705729166667 0.41562500000000124  Z " fill-rule="nonzero" fill="#000000" stroke="none" transform="matrix(1 0 0 1 24 20 )" />
  </g>
</svg>