<?xml version="1.0" encoding="utf-8"?>
<svg version="1.1" xmlns:xlink="http://www.w3.org/1999/xlink" width="28px" height="28px" xmlns="http://www.w3.org/2000/svg">
  <g transform="matrix(1 0 0 1 -16 -16 )">
    <path d="M 28 14  C 28 21.84  21.84 28  14 28  C 6.159999999999999 28  0 21.84  0 14  C 0 6.159999999999999  6.159999999999999 0  14 0  C 21.84 0  28 6.159999999999999  28 14  Z M 18 11  C 18 10.458333333333332  17.89453125 9.94140625  17.68359375 9.44921875  C 17.47265625 8.95703125  17.1875 8.53125  16.828125 8.171875  C 16.46875 7.8125  16.04296875 7.52734375  15.550781249999998 7.31640625  C 15.058593749999998 7.105468749999999  14.541666666666668 7  14 7  C 13.458333333333334 7  12.94140625 7.105468749999999  12.44921875 7.31640625  C 11.95703125 7.52734375  11.53125 7.8125  11.171875 8.171875  C 10.8125 8.53125  10.52734375 8.95703125  10.31640625 9.44921875  C 10.10546875 9.94140625  10 10.458333333333332  10 11  C 10 11.765625  10.205729166666668 12.473958333333332  10.6171875 13.125  C 10.372395833333334 13.197916666666666  10.139322916666668 13.296875  9.91796875 13.421875  C 9.696614583333334 13.546875  9.46484375 13.736979166666666  9.22265625 13.9921875  C 8.98046875 14.247395833333332  8.7734375 14.548177083333332  8.6015625 14.894531249999998  C 8.4296875 15.240885416666668  8.286458333333334 15.688802083333332  8.171875 16.23828125  C 8.057291666666666 16.787760416666668  8 17.403645833333336  8 18.0859375  C 8 18.888020833333336  8.260416666666666 19.57421875  8.78125 20.14453125  C 9.302083333333334 20.71484375  9.9296875 21  10.6640625 21  L 17.3359375 21  C 18.0703125 21  18.697916666666668 20.71484375  19.21875 20.14453125  C 19.739583333333332 19.57421875  20 18.888020833333336  20 18.0859375  C 20 17.403645833333336  19.942708333333332 16.787760416666668  19.828125 16.23828125  C 19.713541666666668 15.688802083333332  19.5703125 15.240885416666668  19.3984375 14.894531249999998  C 19.2265625 14.548177083333332  19.01953125 14.247395833333332  18.77734375 13.9921875  C 18.53515625 13.736979166666666  18.303385416666668 13.546875  18.08203125 13.421875  C 17.860677083333336 13.296875  17.627604166666668 13.197916666666666  17.3828125 13.125  C 17.794270833333336 12.473958333333332  18 11.765625  18 11  Z M 16.12109375 8.87890625  C 16.70703125 9.46484375  17 10.171875  17 11  C 17 11.828125  16.70703125 12.53515625  16.12109375 13.12109375  C 15.535156250000002 13.70703125  14.828125000000002 14  14 14  C 13.171875 14  12.46484375 13.70703125  11.87890625 13.12109375  C 11.29296875 12.53515625  11 11.828125  11 11  C 11 10.171875  11.29296875 9.46484375  11.87890625 8.87890625  C 12.46484375 8.29296875  13.171875 8  14 8  C 14.828125000000002 8  15.535156250000002 8.29296875  16.12109375 8.87890625  Z M 10.6640625 20  C 10.205729166666668 20  9.813802083333334 19.813802083333336  9.48828125 19.44140625  C 9.162760416666666 19.069010416666664  9 18.6171875  9 18.0859375  C 9 16.841145833333332  9.204427083333334 15.859375  9.61328125 15.140624999999998  C 10.022135416666668 14.421875  10.609375 14.044270833333332  11.375 14.007812500000002  C 12.130208333333334 14.669270833333334  13.005208333333334 15  14 15  C 14.994791666666668 15  15.869791666666668 14.669270833333334  16.625 14.007812500000002  C 17.390625 14.044270833333332  17.977864583333336 14.421875  18.38671875 15.140624999999998  C 18.795572916666668 15.859375  19 16.841145833333332  19 18.0859375  C 19 18.6171875  18.837239583333336 19.069010416666664  18.51171875 19.44140625  C 18.186197916666668 19.813802083333336  17.794270833333336 20  17.3359375 20  L 10.6640625 20  Z " fill-rule="nonzero" fill="#f7f9fc" stroke="none" transform="matrix(1 0 0 1 16 16 )" />
  </g>
</svg>