<?xml version="1.0" encoding="utf-8"?>
<svg version="1.1" xmlns:xlink="http://www.w3.org/1999/xlink" width="100px" height="100px" xmlns="http://www.w3.org/2000/svg">
  <g transform="matrix(1 0 0 1 -145 -671 )">
    <path d="M 97.55838566004672 68.33161616530367  C 100.20097911799064 70.97420962324759  100.20097911799064 74.67083893107474  97.55846341997665 77.31366566880843  L 75.8222302132009 99.04678847838784  C 75.5124035484813 99.35964778037385  75.0901904570677 99.53278804030367  74.64976599007008 99.53278804030367  L 64.6957173627336 99.53278804030367  C 63.778383469626135 99.53278804030367  63.037253577686904 98.78860218311911  63.037253577686904 97.87432425525697  L 63.037253577686904 87.92027562792055  C 63.037253577686904 87.47983560893692  63.21039383761683 87.05760696553739  63.52325313960279 86.74781140478967  L 85.25948634637848 65.01468859521026  C 87.80487989193921 62.46929504964953  91.68681111273361 62.463229775116815  94.2384254526869 65.01468859521026  L 97.55838566004672 68.33161616530367  Z M 33.17845137266352 14  C 32.26111747955605 13.2712094772196  31.51998758761681 14.01539533440416  31.520065347546733 14.929751022196228  C 31.520065347546733 15.847084915303752  32.26121079147197 16.588214807242935  33.17852913259344 17  L 91.23720319801402 17  C 93.98306184287378 16.588214807242935  96.21562719042055 18.82078015478976  96 21.56663879964958  L 96 61.378945312500036  C 96.21562719042055 62.29324656834115  96.95677263434578 63.037409097546735  97.87409097546731 63.037409097546735  C 98.79142486857478 63.037409097546735  99.53255476051402 62.29322324036218  99 61.378945312500036  L 99 21.56663879964958  C 99.53255476051402 16.992177643107425  95.81158659462614 13.2712094772196  91.23712543808409 14  L 33.17845137266352 14  Z M 59.72141464661217 97.8755684141355  L 59.72048152745327 97.87626825350469  C 59.72048152745327 98.7905695093458  58.97933608352805 99.5347320385514  58.06201774240651 99  L 28.200649459696255 99  C 27.283315566588783 99.5347320385514  26.542185674649545 98.79054618136684  27 97.87626825350469  L 27 86.26360032126172  L 18.24675635221962 86.26360032126172  C 17.329422459112152 86.26360032126172  16.588292567172857 85.51941446407704  16.588292567172857 84.60513653621501  C 16.588292567172857 83.68780264310749  17.32943801109809 82.9466727511682  18.24675635221962 82.9466727511682  L 27 82.9466727511682  L 27 21.56764967873835  C 26.542185674649545 18.821791033878526  24.309620327102778 16.589225686331815  21.566794319509313 16.589225686331815  C 18.82093567464949 16.589225686331815  16.58837032710278 18.821791033878526  17 21.56764967873835  L 17 77.96770443925232  C 16.58837032710278 82.54216559579436  12.867402161214955 86.2631337616823  8.296051401869136 86.2631337616823  C 3.721590245327093 86.2631337616823  0.0006220794392675089 82.54216559579436  0 77.96770443925232  L 0 1.6595524240653958  C 0.0006220794392675089 0.7452511682242857  0.7417675233645014 0.0010886390186897188  1.6590858644859736 0  L 71.3335382593458 0  C 72.25087215245327 0.0010886390186897188  72.9920020443925 0.7452744962032511  72.9920020443925 1.6595524240653958  L 72.9920020443925 8.296517961448558  C 72.9920020443925 9.210819217289782  72.2508488244743 9.954981746495378  71.3335382593458 9.954981746495378  C 70.4162276942173 9.954981746495378  69.6750744742991 9.210795889310702  69.6750744742991 8.296517961448558  L 69.6750744742991 4  L 4 4  L 4 77.9676266793224  C 3.317860689252314 80.71348532418222  5.550426036799081 82.94605067172893  8.296284681658847 82.94605067172893  C 11.039110689252311 82.94605067172893  13.271676036799079 80.71348532418222  14 77.9676266793224  L 14 21.567571918808426  C 13.271676036799079 16.993110762266383  16.992644202686904 13.272142596378444  21.567105359228947 13.272142596378444  C 26.13853387850469 13.272142596378444  29.859424284462595 16.993110762266383  30 21.567571918808426  L 30 96  L 58.06295086156541 96  C 58.98028475467289 96.2171046290888  59.72141464661217 96.95825007301403  59.72141464661217 97.8755684141355  Z M 77.96583820093457 59.72009272780372  L 77.96661580023363 59  L 66.35394786799066 59  C 65.43661397488319 59.72009272780372  64.69548408294395 58.975906870619156  64.69548408294395 58.06162894275702  L 64.69548408294395 49.76619962032714  L 61.37855651285048 49.76619962032714  L 61.37855651285048 58.06162894275702  C 61.37855651285048 58.97593019859813  60.63741106892525 59.72009272780372  59.72009272780372 59  L 48.107424795560746 59  C 47.79826349014451 59.72009272780372  46.44896101051404 58.66777549139625  47 58.06162894275702  L 47 43.81912018107482  L 45.962961448598094 44.305119742990655  C 45.312935090537394 44.95210568779203  44.26499561915887 44.95210568779203  43.6150003650701 44.305119742990655  C 42.96801442026867 43.655093384929955  42.96801442026867 42.60715391355143  43.6150003650701 41.95715865946261  L 46.93192793516357 38.643263726635496  L 61.86416727511681 23.711024386682197  C 62.51115321991825 23.060998028621498  63.56213310455604 23.060998028621498  64.2090957213785 23.711024386682197  L 79.1413350613318 38.643263726635496  L 82.45826263142521 41.95715865946261  C 83.10524857622664 42.60718501752331  83.10524857622664 43.65512448890183  82.45826263142521 44.305119742990655  C 82.13324945239486 44.627092508761734  81.70800372371497 44.79111930490649  81.2857984082944 44.79111930490649  C 80.86054490362147 44.79111930490649  80.43526029497662 44.627092508761734  80.11030154789717 44.305119742990655  L 79 43.81912018107482  L 79 58.06162894275702  C 79.62430198598133 58.97593019859813  78.88314876606307 59.72009272780372  77.96583820093457 59.72009272780372  Z M 95.21065785630839 74.9653935455608  C 96.55326080607477 73.62279059579441  96.55326080607477 72.01899204147196  95.21065785630844 70.6764668516355  L 91.89373028621492 67.35953928154208  C 90.57546619450932 66.04430782710278  88.91700240946261 66.0473404643692  87.60480359228973 67.35953928154208  L 85.46034024532707 69.50400262850462  L 93.06619450934579 77.10985689252334  L 95.21065785630839 74.9653935455608  Z M 66.35456994742992 96.21593823014018  L 73.96353460864486 96.21593823014018  L 66.35456994742992 88.60697356892524  L 66.35456994742992 96.21593823014018  Z M 71.33291617990653 88.89243027161217  L 85.74260879088786 74.47970502336443  L 83.11214588200932 71.85227475175236  L 68.70245327102805 86.26196736273369  L 71.33291617990653 88.89243027161217  Z M 76.30822977511684 93.8708542640187  L 90.72103278329439 79.45812901577096  L 88.0905698744159 76.82766610689248  L 73.6777668662383 91.2373587178738  L 76.30822977511684 93.8708542640187  Z M 74.64976599007008 69.67429687499998  C 75.56709988317755 69.67429687499998  76.30822977511684 68.93011101781542  76.30822977511684 68.01280045268686  C 76.30822977511684 67.09849919684575  75.56708433119161 66.35433666764015  74.64976599007008 66.35433666764015  L 64.6957173627336 66.35433666764015  C 63.778383469626135 66.35433666764015  63.037253577686904 67.09852252482472  63.037253577686904 68.01280045268686  C 63.037253577686904 68.93013434579439  63.77839902161213 69.67429687499998  64.6957173627336 69.67429687499998  L 74.64976599007008 69.67429687499998  Z M 39.812539792640166 68.01280045268686  C 39.812539792640166 68.93013434579439  40.5536852365654 69.67429687499998  41.47100357768693 69  L 58.06186222254672 69  C 58.97919611565419 69.67429687499998  59.72032600759343 68.93011101781542  59.72032600759343 68.01280045268686  C 59.72032600759343 67.09849919684575  58.97918056366825 66.35433666764015  58.06186222254672 66  L 41.47100357768693 66  C 40.553669684579404 66.35433666764015  39.812539792640166 67.09852252482472  39.812539792640166 68.01280045268686  Z M 39.812539792640166 77.96677132009347  C 39.812539792640166 78.88410521320088  40.5536852365654 79.62523510514018  41.47100357768693 79  L 64.69556184287381 79  C 65.61289573598128 79.62523510514018  66.35402562792058 78.88408188522192  66.35402562792058 77.96677132009347  C 66.35402562792058 77.05247006425236  65.61288018399534 76.30830753504677  64.69556184287381 76  L 41.47100357768693 76  C 40.553669684579404 76.30830753504677  39.812539792640166 77.05249339223133  39.812539792640166 77.96677132009347  Z M 68.01334477219626 56.4031651577103  L 76 56.4031651577103  L 76 40.49892669392523  L 63.037642377336454 27.228417056074704  L 50 40.49892669392523  L 50 56.4031651577103  L 58.062562061915855 56.4031651577103  L 58.062562061915855 48.10773583528032  C 58.062562061915855 47.19040194217291  58.80370750584108 46.44927205023362  59.72102584696262 46.44927205023362  L 66.3548809871495 46.44927205023362  C 67.27221488025702 46.44927205023362  68.01334477219626 47.19041749415885  68.01334477219626 48.10773583528032  L 68.01334477219626 56.4031651577103  Z " fill-rule="nonzero" fill="#013e62" stroke="none" transform="matrix(1 0 0 1 145 671 )" />
  </g>
</svg>