<?xml version="1.0" encoding="utf-8"?>
<svg version="1.1" xmlns:xlink="http://www.w3.org/1999/xlink" width="814px" height="787px" xmlns="http://www.w3.org/2000/svg">
  <g transform="matrix(1 0 0 1 -173 -301 )">
    <path d="M 580 301  C 807.9200000000001 301  987 474.14  987 694.5  C 987 914.86  807.9200000000001 1088  580 1088  C 352.08 1088  173 914.86  173 694.5  C 173 474.14  352.08 301  580 301  Z " fill-rule="nonzero" fill="#6d6aff" stroke="none" />
    <path d="M 580 301.5  C 807.64 301.5  986.5 474.41999999999996  986.5 694.5  C 986.5 914.58  807.64 1087.5  580 1087.5  C 352.36 1087.5  173.5 914.58  173.5 694.5  C 173.5 474.41999999999996  352.36 301.5  580 301.5  Z " stroke-width="1" stroke="#797979" fill="none" />
  </g>
</svg>