<?xml version="1.0" encoding="utf-8"?>
<svg version="1.1" xmlns:xlink="http://www.w3.org/1999/xlink" width="700px" height="540px" xmlns="http://www.w3.org/2000/svg">
  <defs>
    <radialGradient cx="384.79166666666606" cy="412.93413173652726" r="583.0533500974212" gradientTransform="matrix(0.9861887498684618 0.16562532908006683 -0.1504817990978445 0.8960190941478455 67.45352500948373 -20.793981343696963 )" gradientUnits="userSpaceOnUse" id="RadialGradient29">
      <stop id="Stop30" stop-color="#aaaaaa" offset="0" />
      <stop id="Stop31" stop-color="#ffffff" offset="1" />
    </radialGradient>
  </defs>
  <g transform="matrix(1 0 0 1 -45 -130 )">
    <path d="M 48.5 175  A 41.5 41.5 0 0 1 90 133.5 L 700 133.5  A 41.5 41.5 0 0 1 741.5 175 L 741.5 625  A 41.5 41.5 0 0 1 700 666.5 L 90 666.5  A 41.5 41.5 0 0 1 48.5 625 L 48.5 175  Z " fill-rule="nonzero" fill="url(#RadialGradient29)" stroke="none" />
    <path d="M 47 175  A 43 43 0 0 1 90 132 L 700 132  A 43 43 0 0 1 743 175 L 743 625  A 43 43 0 0 1 700 668 L 90 668  A 43 43 0 0 1 47 625 L 47 175  Z " stroke-width="4" stroke="#d7d7d7" fill="none" />
  </g>
</svg>