<?xml version="1.0" encoding="utf-8"?>
<svg version="1.1" xmlns:xlink="http://www.w3.org/1999/xlink" width="900px" height="605px" xmlns="http://www.w3.org/2000/svg">
  <defs>
    <radialGradient cx="398.3606557377049" cy="454.0983606557378" r="572.3086493166445" gradientTransform="matrix(0.031234752377720165 0.9995120760870789 -0.8249589589546199 0.025779967467331005 760.5304701682685 44.22543364326094 )" gradientUnits="userSpaceOnUse" id="RadialGradient24">
      <stop id="Stop25" stop-color="#aaaaaa" offset="0" />
      <stop id="Stop26" stop-color="#ffffff" offset="1" />
    </radialGradient>
    <filter x="0px" y="100px" width="900px" height="605px" filterUnits="userSpaceOnUse" id="filter27">
      <feOffset dx="0" dy="5" in="SourceAlpha" result="shadowOffsetInner" />
      <feGaussianBlur stdDeviation="0" in="shadowOffsetInner" result="shadowGaussian" />
      <feComposite in2="shadowGaussian" operator="atop" in="SourceAlpha" result="shadowComposite" />
      <feColorMatrix type="matrix" values="0 0 0 0 0.058823529411764705  0 0 0 0 0.043137254901960784  0 0 0 0 0.043137254901960784  0 0 0 0.34901960784313724 0  " in="shadowComposite" />
    </filter>
    <g id="widget28">
      <path d="M 4.5 174  A 69.5 69.5 0 0 1 73.99999999999999 104.5 L 826 104.5  A 69.5 69.5 0 0 1 895.5 174 L 895.5 626  A 69.5 69.5 0 0 1 826 695.5 L 74 695.5  A 69.5 69.5 0 0 1 4.5 626 L 4.5 174  Z " fill-rule="nonzero" fill="url(#RadialGradient24)" stroke="none" />
      <path d="M 2.5 174  A 71.5 71.5 0 0 1 73.99999999999999 102.5 L 826 102.5  A 71.5 71.5 0 0 1 897.5 174 L 897.5 626  A 71.5 71.5 0 0 1 826 697.5 L 74 697.5  A 71.5 71.5 0 0 1 2.5 626 L 2.5 174  Z " stroke-width="5" stroke="#d7d7d7" fill="none" />
    </g>
  </defs>
  <g transform="matrix(1 0 0 1 0 -100 )">
    <use xlink:href="#widget28" filter="url(#filter27)" />
    <use xlink:href="#widget28" />
  </g>
</svg>