<?xml version="1.0" encoding="utf-8"?>
<svg version="1.1" xmlns:xlink="http://www.w3.org/1999/xlink" width="24px" height="33px" xmlns="http://www.w3.org/2000/svg">
  <defs>
    <mask fill="white" id="clip33">
      <path d="M 12 33  C 5.372727272727272 33  0 27.693061224489796  0 21.086326530612244  C 0 16.156530612244897  6.975 5.618755102040817  10.288636363636364 0.8957142857142858  C 11.127272727272727 -0.29733673469387756  12.872727272727273 -0.29733673469387756  13.711363636363636 0.8957142857142858  C 17.025 5.618755102040817  24 16.156530612244897  24 21.086326530612244  C 24 27.693061224489796  18.627272727272725 33  12 33  Z M 12 26.53469387755102  C 8.986363636363636 26.53469387755102  6.545454545454545 24.123673469387754  6.545454545454545 21.086326530612244  C 6.545454545454545 20.554285714285715  6.054545454545455 20.00877551020408  5.454545454545454 20.00877551020408  C 4.851818181818182 20.00877551020408  4.363636363636363 20.554285714285715  4.363636363636363 21.086326530612244  C 4.363636363636363 25.315714285714286  7.779545454545454 28.689795918367345  12 28.689795918367345  C 12.600000000000001 28.689795918367345  13.09090909090909 28.204897959183675  13.09090909090909 27.612244897959187  C 13.09090909090909 27.01959183673469  12.600000000000001 26.53469387755102  12 26.53469387755102  Z " fill-rule="evenodd" />
    </mask>
  </defs>
  <g transform="matrix(1 0 0 1 -808 -309 )">
    <path d="M 12 33  C 5.372727272727272 33  0 27.693061224489796  0 21.086326530612244  C 0 16.156530612244897  6.975 5.618755102040817  10.288636363636364 0.8957142857142858  C 11.127272727272727 -0.29733673469387756  12.872727272727273 -0.29733673469387756  13.711363636363636 0.8957142857142858  C 17.025 5.618755102040817  24 16.156530612244897  24 21.086326530612244  C 24 27.693061224489796  18.627272727272725 33  12 33  Z M 12 26.53469387755102  C 8.986363636363636 26.53469387755102  6.545454545454545 24.123673469387754  6.545454545454545 21.086326530612244  C 6.545454545454545 20.554285714285715  6.054545454545455 20.00877551020408  5.454545454545454 20.00877551020408  C 4.851818181818182 20.00877551020408  4.363636363636363 20.554285714285715  4.363636363636363 21.086326530612244  C 4.363636363636363 25.315714285714286  7.779545454545454 28.689795918367345  12 28.689795918367345  C 12.600000000000001 28.689795918367345  13.09090909090909 28.204897959183675  13.09090909090909 27.612244897959187  C 13.09090909090909 27.01959183673469  12.600000000000001 26.53469387755102  12 26.53469387755102  Z " fill-rule="nonzero" fill="#62b924" stroke="none" transform="matrix(1 0 0 1 808 309 )" />
    <path d="M 12 33  C 5.372727272727272 33  0 27.693061224489796  0 21.086326530612244  C 0 16.156530612244897  6.975 5.618755102040817  10.288636363636364 0.8957142857142858  C 11.127272727272727 -0.29733673469387756  12.872727272727273 -0.29733673469387756  13.711363636363636 0.8957142857142858  C 17.025 5.618755102040817  24 16.156530612244897  24 21.086326530612244  C 24 27.693061224489796  18.627272727272725 33  12 33  Z " stroke-width="2" stroke="#797979" fill="none" transform="matrix(1 0 0 1 808 309 )" mask="url(#clip33)" />
    <path d="M 12 26.53469387755102  C 8.986363636363636 26.53469387755102  6.545454545454545 24.123673469387754  6.545454545454545 21.086326530612244  C 6.545454545454545 20.554285714285715  6.054545454545455 20.00877551020408  5.454545454545454 20.00877551020408  C 4.851818181818182 20.00877551020408  4.363636363636363 20.554285714285715  4.363636363636363 21.086326530612244  C 4.363636363636363 25.315714285714286  7.779545454545454 28.689795918367345  12 28.689795918367345  C 12.600000000000001 28.689795918367345  13.09090909090909 28.204897959183675  13.09090909090909 27.612244897959187  C 13.09090909090909 27.01959183673469  12.600000000000001 26.53469387755102  12 26.53469387755102  Z " stroke-width="2" stroke="#797979" fill="none" transform="matrix(1 0 0 1 808 309 )" mask="url(#clip33)" />
  </g>
</svg>