<?xml version="1.0" encoding="utf-8"?>
<svg version="1.1" xmlns:xlink="http://www.w3.org/1999/xlink" width="100px" height="105px" xmlns="http://www.w3.org/2000/svg">
  <defs>
    <linearGradient gradientUnits="userSpaceOnUse" x1="770" y1="537.9310344827586" x2="858.0711152517372" y2="611.5701237137241" id="LinearGradient34">
      <stop id="Stop35" stop-color="#f2f2f2" offset="0" />
      <stop id="Stop36" stop-color="#d7d7d7" offset="1" />
    </linearGradient>
    <filter x="770px" y="530px" width="100px" height="105px" filterUnits="userSpaceOnUse" id="filter37">
      <feOffset dx="0" dy="5" in="SourceAlpha" result="shadowOffsetInner" />
      <feGaussianBlur stdDeviation="0" in="shadowOffsetInner" result="shadowGaussian" />
      <feComposite in2="shadowGaussian" operator="atop" in="SourceAlpha" result="shadowComposite" />
      <feColorMatrix type="matrix" values="0 0 0 0 0.2  0 0 0 0 0.2  0 0 0 0 0.2  0 0 0 0.34901960784313724 0  " in="shadowComposite" />
    </filter>
    <g id="widget38">
      <path d="M 820 534  C 845.76 534  866 554.24  866 580  C 866 605.76  845.76 626  820 626  C 794.24 626  774 605.76  774 580  C 774 554.24  794.24 534  820 534  Z " fill-rule="nonzero" fill="url(#LinearGradient34)" stroke="none" />
      <path d="M 820 532.5  C 846.6 532.5  867.5 553.4  867.5 580  C 867.5 606.6  846.6 627.5  820 627.5  C 793.4 627.5  772.5 606.6  772.5 580  C 772.5 553.4  793.4 532.5  820 532.5  Z " stroke-width="5" stroke="#d7d7d7" fill="none" />
    </g>
  </defs>
  <g transform="matrix(1 0 0 1 -770 -530 )">
    <use xlink:href="#widget38" filter="url(#filter37)" />
    <use xlink:href="#widget38" />
  </g>
</svg>