<?xml version="1.0" encoding="utf-8"?>
<svg version="1.1" xmlns:xlink="http://www.w3.org/1999/xlink" width="35px" height="35px" xmlns="http://www.w3.org/2000/svg">
  <g transform="matrix(1 0 0 1 -178 -784 )">
    <path d="M 22.720833333333335 21.35972222222222  L 23.265277777777776 21.884722222222223  L 24.80138888888889 21.884722222222223  L 34.50416666666667 31.606944444444444  L 31.606944444444444 34.50416666666667  L 21.884722222222223 24.80138888888889  L 21.884722222222223 23.265277777777776  L 21.35972222222222 22.720833333333335  C 19.143055555555556 24.626388888888886  16.26527777777778 25.773611111111112  13.134722222222223 25.773611111111112  C 6.154166666666667 25.773611111111112  0.4958333333333331 20.115277777777777  0.4958333333333331 13.134722222222223  C 0.4958333333333331 6.154166666666667  6.154166666666667 0.4958333333333331  13.134722222222223 0.4958333333333331  C 20.115277777777777 0.4958333333333331  25.773611111111112 6.154166666666667  25.773611111111112 13.134722222222223  C 25.773611111111112 16.26527777777778  24.626388888888886 19.143055555555556  22.720833333333335 21.35972222222222  Z M 13.134722222222223 4.384722222222222  C 8.293075 4.384722222222222  4.384722222222222 8.293075  4.384722222222222 13.134722222222223  C 4.384722222222222 17.976388888888884  8.293075 21.884722222222223  13.134722222222223 21.884722222222223  C 17.976388888888884 21.884722222222223  21.884722222222223 17.976388888888884  21.884722222222223 13.134722222222223  C 21.884722222222223 8.293075  17.976388888888884 4.384722222222222  13.134722222222223 4.384722222222222  Z " fill-rule="nonzero" fill="#013f63" stroke="none" transform="matrix(1 0 0 1 178 784 )" />
  </g>
</svg>