<?xml version="1.0" encoding="utf-8"?>
<svg version="1.1" xmlns:xlink="http://www.w3.org/1999/xlink" width="24px" height="42px" xmlns="http://www.w3.org/2000/svg">
  <g transform="matrix(1 0 0 1 -808 -424 )">
    <path d="M 14.1796875 28.921875  C 14.7265625 29.703125  15 30.5625  15 31.5  C 15 32.74999999999999  14.5625 33.8125  13.6875 34.6875  C 12.812500000000002 35.5625  11.75 36  10.5 36  C 9.25 36  8.1875 35.5625  7.3125 34.6875  C 6.4375 33.8125  6 32.74999999999999  6 31.5  C 6 30.5625  6.2734375 29.703125  6.8203125 28.921875  C 7.367187500000001 28.140625  8.09375 27.5859375  9 27.2578125  L 9 6.000000000000002  L 12 6.000000000000002  L 12 27.2578125  C 12.906250000000002 27.5859375  13.632812500000002 28.140625  14.1796875 28.921875  Z M 15.80859375 36.80859375  C 17.26953125 35.34765625  18 33.578125  18 31.5  C 18 30.296875000000004  17.734375 29.171874999999996  17.203125 28.125000000000004  C 16.671875 27.078125  15.9375 26.203125  15 25.500000000000004  L 15 7.500000000000002  C 15 6.2499999999999964  14.5625 5.1875  13.6875 4.312499999999998  C 12.812500000000002 3.4374999999999973  11.75 2.9999999999999987  10.5 2.9999999999999987  C 9.25 2.9999999999999987  8.1875 3.4374999999999973  7.3125 4.312499999999998  C 6.4375 5.1875  6 6.2499999999999964  6 7.500000000000002  L 6 25.500000000000004  C 5.0625 26.203125  4.328125 27.078125  3.796875 28.125000000000004  C 3.265625 29.171874999999996  3 30.296875000000004  3 31.5  C 3 33.578125  3.7304687500000004 35.34765625  5.19140625 36.80859375  C 6.652343750000001 38.26953125  8.421875 39  10.5 39  C 12.578125000000002 39  14.347656250000002 38.26953125  15.80859375 36.80859375  Z M 18 24.1640625  C 20 26.2109375  21 28.656249999999993  21 31.5  C 21 34.39062499999999  19.97265625 36.86328125  17.91796875 38.91796875  C 15.86328125 40.97265625  13.390625 42  10.5 42  C 7.609374999999999 42  5.13671875 40.97265625  3.08203125 38.91796875  C 1.02734375 36.86328125  0 34.39062499999999  0 31.5  C 0 28.656249999999993  1 26.2109375  3 24.1640625  L 3 7.500000000000002  C 3 5.421874999999998  3.7304687500000004 3.6523437499999996  5.19140625 2.191406250000001  C 6.652343750000001 0.7304687500000018  8.421875 0  10.5 0  C 12.578125000000002 0  14.347656250000002 0.7304687500000018  15.80859375 2.191406250000001  C 17.26953125 3.6523437499999996  18 5.421874999999998  18 7.500000000000002  L 18 24.1640625  Z M 19.5 18  L 24 18  L 24 21  L 19.5 21  L 19.5 18  Z M 19.5 12  L 24 12  L 24 14.999999999999998  L 19.5 14.999999999999998  L 19.5 12  Z M 19.5 6.000000000000002  L 24 6.000000000000002  L 24 9  L 19.5 9  L 19.5 6.000000000000002  Z " fill-rule="nonzero" fill="#469ad0" stroke="none" transform="matrix(1 0 0 1 808 424 )" />
  </g>
</svg>