<?xml version="1.0" encoding="utf-8"?>
<svg version="1.1" xmlns:xlink="http://www.w3.org/1999/xlink" width="33px" height="29px" xmlns="http://www.w3.org/2000/svg">
  <defs>
    <mask fill="white" id="clip32">
      <path d="M 17.310267857142858 28.66015625  C 17.089285714285715 28.88671875  16.81919642857143 29  16.5 29  C 16.180803571428573 29  15.910714285714288 28.88671875  15.689732142857142 28.66015625  L 4.198660714285714 17.294270833333336  C 4.075892857142858 17.19357638888889  3.9070870535714293 17.029947916666664  3.6922433035714284 16.803385416666664  C 3.477399553571429 16.576822916666664  3.1367187500000004 16.164605034722225  2.670200892857143 15.566731770833336  C 2.2036830357142856 14.968858506944441  1.7862723214285714 14.355251736111109  1.41796875 13.725911458333332  C 1.0496651785714286 13.096571180555555  0.7212611607142858 12.335069444444445  0.43275669642857145 11.44140625  C 0.14425223214285715 10.547743055555554  0 9.67925347222222  0 8.8359375  C 0 6.066840277777777  0.7795758928571427 3.9019097222222205  2.3387276785714284 2.341145833333332  C 3.8978794642857144 0.7803819444444441  6.052455357142857 0  8.802455357142858 0  C 9.563616071428571 0  10.340122767857142 0.13530815972222043  11.131975446428571 0.40592447916666774  C 11.923828125 0.6765407986111086  12.660435267857142 1.0415581597222205  13.341796875 1.5009765625  C 14.02315848214286 1.9603949652777763  14.609375000000004 2.3914930555555527  15.100446428571429 2.794270833333332  C 15.591517857142858 3.1970486111111085  16.058035714285715 3.625  16.5 4.078125  C 16.941964285714285 3.625  17.408482142857146 3.1970486111111085  17.899553571428573 2.794270833333332  C 18.390625000000004 2.3914930555555527  18.976841517857142 1.9603949652777763  19.658203125 1.5009765625  C 20.339564732142858 1.0415581597222205  21.076171875 0.6765407986111086  21.868024553571427 0.40592447916666774  C 22.659877232142858 0.13530815972222043  23.43638392857143 0  24.197544642857142 0  C 26.947544642857146 0  29.10212053571429 0.7803819444444441  30.661272321428573 2.341145833333332  C 32.22042410714286 3.9019097222222205  33 6.066840277777777  33 8.8359375  C 33 11.617621527777777  31.59430803571429 14.449652777777777  28.782924107142858 17.33203125  L 17.310267857142858 28.66015625  Z " fill-rule="evenodd" />
    </mask>
  </defs>
  <g transform="matrix(1 0 0 1 -804 -191 )">
    <path d="M 17.310267857142858 28.66015625  C 17.089285714285715 28.88671875  16.81919642857143 29  16.5 29  C 16.180803571428573 29  15.910714285714288 28.88671875  15.689732142857142 28.66015625  L 4.198660714285714 17.294270833333336  C 4.075892857142858 17.19357638888889  3.9070870535714293 17.029947916666664  3.6922433035714284 16.803385416666664  C 3.477399553571429 16.576822916666664  3.1367187500000004 16.164605034722225  2.670200892857143 15.566731770833336  C 2.2036830357142856 14.968858506944441  1.7862723214285714 14.355251736111109  1.41796875 13.725911458333332  C 1.0496651785714286 13.096571180555555  0.7212611607142858 12.335069444444445  0.43275669642857145 11.44140625  C 0.14425223214285715 10.547743055555554  0 9.67925347222222  0 8.8359375  C 0 6.066840277777777  0.7795758928571427 3.9019097222222205  2.3387276785714284 2.341145833333332  C 3.8978794642857144 0.7803819444444441  6.052455357142857 0  8.802455357142858 0  C 9.563616071428571 0  10.340122767857142 0.13530815972222043  11.131975446428571 0.40592447916666774  C 11.923828125 0.6765407986111086  12.660435267857142 1.0415581597222205  13.341796875 1.5009765625  C 14.02315848214286 1.9603949652777763  14.609375000000004 2.3914930555555527  15.100446428571429 2.794270833333332  C 15.591517857142858 3.1970486111111085  16.058035714285715 3.625  16.5 4.078125  C 16.941964285714285 3.625  17.408482142857146 3.1970486111111085  17.899553571428573 2.794270833333332  C 18.390625000000004 2.3914930555555527  18.976841517857142 1.9603949652777763  19.658203125 1.5009765625  C 20.339564732142858 1.0415581597222205  21.076171875 0.6765407986111086  21.868024553571427 0.40592447916666774  C 22.659877232142858 0.13530815972222043  23.43638392857143 0  24.197544642857142 0  C 26.947544642857146 0  29.10212053571429 0.7803819444444441  30.661272321428573 2.341145833333332  C 32.22042410714286 3.9019097222222205  33 6.066840277777777  33 8.8359375  C 33 11.617621527777777  31.59430803571429 14.449652777777777  28.782924107142858 17.33203125  L 17.310267857142858 28.66015625  Z " fill-rule="nonzero" fill="#ee4b9b" stroke="none" transform="matrix(1 0 0 1 804 191 )" />
    <path d="M 17.310267857142858 28.66015625  C 17.089285714285715 28.88671875  16.81919642857143 29  16.5 29  C 16.180803571428573 29  15.910714285714288 28.88671875  15.689732142857142 28.66015625  L 4.198660714285714 17.294270833333336  C 4.075892857142858 17.19357638888889  3.9070870535714293 17.029947916666664  3.6922433035714284 16.803385416666664  C 3.477399553571429 16.576822916666664  3.1367187500000004 16.164605034722225  2.670200892857143 15.566731770833336  C 2.2036830357142856 14.968858506944441  1.7862723214285714 14.355251736111109  1.41796875 13.725911458333332  C 1.0496651785714286 13.096571180555555  0.7212611607142858 12.335069444444445  0.43275669642857145 11.44140625  C 0.14425223214285715 10.547743055555554  0 9.67925347222222  0 8.8359375  C 0 6.066840277777777  0.7795758928571427 3.9019097222222205  2.3387276785714284 2.341145833333332  C 3.8978794642857144 0.7803819444444441  6.052455357142857 0  8.802455357142858 0  C 9.563616071428571 0  10.340122767857142 0.13530815972222043  11.131975446428571 0.40592447916666774  C 11.923828125 0.6765407986111086  12.660435267857142 1.0415581597222205  13.341796875 1.5009765625  C 14.02315848214286 1.9603949652777763  14.609375000000004 2.3914930555555527  15.100446428571429 2.794270833333332  C 15.591517857142858 3.1970486111111085  16.058035714285715 3.625  16.5 4.078125  C 16.941964285714285 3.625  17.408482142857146 3.1970486111111085  17.899553571428573 2.794270833333332  C 18.390625000000004 2.3914930555555527  18.976841517857142 1.9603949652777763  19.658203125 1.5009765625  C 20.339564732142858 1.0415581597222205  21.076171875 0.6765407986111086  21.868024553571427 0.40592447916666774  C 22.659877232142858 0.13530815972222043  23.43638392857143 0  24.197544642857142 0  C 26.947544642857146 0  29.10212053571429 0.7803819444444441  30.661272321428573 2.341145833333332  C 32.22042410714286 3.9019097222222205  33 6.066840277777777  33 8.8359375  C 33 11.617621527777777  31.59430803571429 14.449652777777777  28.782924107142858 17.33203125  L 17.310267857142858 28.66015625  Z " stroke-width="2" stroke="#797979" fill="none" transform="matrix(1 0 0 1 804 191 )" mask="url(#clip32)" />
  </g>
</svg>