<?xml version="1.0" encoding="utf-8"?>
<svg version="1.1" xmlns:xlink="http://www.w3.org/1999/xlink" width="101px" height="101px" xmlns="http://www.w3.org/2000/svg">
  <g transform="matrix(1 0 0 1 -145 -351 )">
    <path d="M 11.615887193341132 53.54980260660044  C 14.358713200934591 53.54980260660044  16.59127854848132 55.78236795414716  17 58.52822659900699  L 17 95.02407210134344  C 16.59127854848132 97.7668981089369  14.358713200934591 99.99946345648362  11.615887193341132 99.99946345648362  L 1.6618385660046844 99.99946345648362  C 0.7475373101635628 99.99946345648362  0.003374780957955329 99.25527759929905  0.003374780957955329 98.34099967143689  C 0.003374780957955329 97.42366577832942  0.7475606381425348 96.68253588639017  1.6618385660046844 96.68253588639017  L 11.615887193341132 96.68253588639017  C 12.530188449182253 96.68253588639017  13.274350978387861 95.9383500292056  14 95.02407210134342  L 14 58.52822659900699  C 13.274350978387861 57.610892705899516  12.530165121203282 56.86976281396026  11.615887193341132 56.86976281396026  L 1.6618385660046844 56.86976281396026  C 0.7475373101635628 56.86976281396026  0.003374780957955329 56.12557695677568  0.003374780957955329 55.21129902891353  C 0.003374780957955329 54.293965135806054  0.7475606381425348 53.54980260660044  1.6618385660046844 53.54980260660044  L 11.615887193341132 53.54980260660044  Z M 72.83606228095796 31.832744998539713  C 72.18907633615656 32.47973094334112  72.18907633615656 33.530710827978965  72.8361711448598 34.17777453271027  L 89.5786616530374 50.92026504088785  L 89.5786616530374 56.87068815712617  L 83.63127117406543 56.87068815712617  L 82.94479873685748 56.18421571991822  L 82.94479873685748 51.89225638872663  C 82.94479873685748 50.974922495619154  82.20365329293226 50.233792603679895  81.28633495181074 50.233792603679895  L 79.62787116676402 50.233792603679895  L 79.62787116676402 48.57532881863317  C 79.62787116676402 47.65799492552569  78.88368530957945 46.91686503358643  77.96637474445095 46.91686503358643  L 73.68048068779206 46.91686503358643  L 72.99096783732477 46.227352183119145  L 72.99096783732477 41.93842548919392  C 72.99096783732477 41.02109159608644  72.24981461740654 40.27996170414718  71.33250405227804 40.27996170414718  L 67.04357735835279 40.27996170414718  L 66.88259097546728 40.118975321261665  C 66.23560503066588 39.47198937646026  65.18462514602803 39.47198937646026  64.53462989193925 40.118975321261665  C 63.88764394713785 40.769001679322415  63.88764394713785 41.81694115070091  64.53462989193925 42.466936404789706  L 65.18161583674065 43.113922349591114  C 65.49144250146027 43.42374901431074  65.91365559287384 43.599921911506996  66.35408005987149 43.599921911506996  L 69.6740402672313 43.599921911506996  L 69.6740402672313 46.9138168443341  C 69.6740402672313 47.35425686331774  69.84718052716121 47.77345286945092  70.15699941588784 48.086281067464945  L 71.81546320093457 49.747777489778024  C 72.1252898656542 50.057604154497646  72.55053559433411 50.23377705169392  72.99096006133178 50.23377705169392  L 76.30788763142525 50.23377705169392  L 76.30788763142525 51.89224083674064  C 76.30788763142525 52.809574729848116  77.04904085134346 53.55070462178738  77.96635141647197 53.55070462178738  L 79.62784783878504 53.55070462178738  L 79.62784783878504 56.87066482914719  C 79.62784783878504 57.30806443487148  79.80098809871497 57.730300854264016  80.11384740070095 58.04312905227803  L 81.77231118574767 59.70159283732476  C 82.08213785046729 60.01141950204438  82.50435094188086 60.18759239924065  82.94477540887851 60.18759239924065  L 91.23709433411217 60.18759239924065  C 92.15442822721964 60.18759239924065  92.89859075642525 59.44340654205607  92.89859075642525 58.529128614193915  L 92.89859075642525 50.23369929176401  C 92.89859075642525 49.79325927278037  92.72241785922898 49.37103062938083  92.41259119450936 49.06123506863317  L 75.18099072721964 31.832744998539713  C 74.53400478241825 31.182718640478964  73.48605753504675 31.182718640478964  72.83606228095796 31.832744998539713  Z M 33.17815588492992 20.374446079147187  C 33.17815588492992 26.03023682096962  35.71748415595796 31.52522002774532  39.97627110105142 35.292439799941576  C 39.87603077540889 36.835507849007  39.81224430490656 38.48790635952102  39.81224430490656 40.28003946407709  C 39.81224430490656 48.591020772488314  42.29387470794394 53.55054910192756  46.44920984228973 53.55054910192756  C 51.6858745619159 53.55054910192756  53.08306498247665 47.29328530227802  53.08306498247665 43.59961087178738  C 53.08306498247665 42.6822769786799  52.341919538551416 41.93811444947429  51.42460119742992 41.93811444947429  C 50.5102999415888 41.93811444947429  49.76613741238319 42.682300306658874  49.76613741238319 43.59961087178738  C 49.76613741238319 43.66339811988901  49.62337795706777 50.23346601197429  46.44920984228973 50.23346601197429  C 44.52644005549066 50.23346601197429  43.13228227219627 46.04780450496494  43.13228227219627 40.27941738463783  C 43.13228227219627 20.939745217581763  49.91808031542057 18.73758400262849  50.13067596378505 18.673820860105124  C 51.008507812500014 18.476380622079425  51.57047882593459 17.616752372955595  51.391242187500005 16.729822612441573  C 51.2120288770444 15.830762302862137  50.34327161214954 15.247562828563069  49.441178665303745 15.429754344334096  C 49.107052022488325 15.496578895297883  47.90720852803739 15.812480943341106  46.46141815128505 17.048716084988307  C 46.46141815128505 16.766229811623816  46.48571812938084 16.480703124999984  46.56165847692757 16.198177971670546  C 46.789471743574765 15.341574583820075  47.33925777599299 14.624783549941576  48.10775916325935 14.181240909754658  C 48.876244998539725 13.740800890771013  49.76925558557243 13.619301000292042  50.62282633615654 13.850154680198584  C 51.47942972400702 14.081000584112136  52.19622075788551 14.630786616530361  52.636653000876166 15.396255366530356  C 53.55398689398365 16.978825459988304  53.00722572283879 19.013880585572416  51.42468673335281 19.928181841413533  C 50.63192424795562 20.386841011974283  50.36155297167056 21.401343713492977  50.817187280957945 22.19418395882008  C 51.12397353241823 22.728783476927557  51.682888580607475 23.023415851343444  52.25699014310749 23.023415851343444  C 52.53947641647198 23.023415851343444  52.8250031030958 22.95355399751751  53.083189398364496 22.801675635221947  C 56.25128446261684 20.97004048627335  57.33875708235983 16.90591774970793  55.51318720794393 13.737978205315407  C 54.626257447429914 12.204008068049053  53.19555249707943 11.107515296436905  51.482423481308416 10.645776832651856  C 49.766261828271034 10.187117662091108  47.98019399824767 10.424036616530362  46.44925649824767 11.307949291764006  C 44.91225372371496 12.194879052278026  43.81576095210281 13.625584002628491  43.35705512558412 15.338713018399522  C 42.92572857038552 16.942511572721948  43.12924185893693 18.604007995035033  43.90988157126169 20.11970454877335  C 42.488352292640194 22.437339259637838  41.15787989193927 25.88490351197429  40.416750000000015 31.012315530081757  C 37.93208695969627 28.038620290595784  36.4953167348131 24.250856344918212  36.4953167348131 20.37475711886681  C 36.4953167348131 11.225523766063068  43.93717530665889 3.783898474006996  53.08306498247665 3.783898474006996  C 62.22895465829441 3.783898474006996  69.67392362733645 11.225757045852792  69.67392362733645 20.37475711886681  C 69.67392362733645 29.52088007447428  62.22903241822431 36.96250536653036  53.08306498247665 36.96250536653036  C 51.2818339661215 36.96250536653036  49.51092932242992 36.676978679906526  47.819106527453286 36.111967253212605  C 46.9503725905374 35.82340792932241  46.01181023656544 36.28814015040886  45.720210499415906 37.15993782856307  C 45.431651175525715 38.028671765478954  45.89942380987151 38.967234119450914  46.768181074766375 39.2558012193341  C 48.80028132301404 39.93620060601634  50.923516209112165 40.27943293662382  53.08314274240655 40.27943293662382  C 64.0605120473131 40.27943293662382  72.99123999707946 31.34948258615653  72.99123999707946 20.374446079147187  C 72.99123999707946 9.397076774240647  64.06128964661218 0.4663488244742905  53.08314274240655 0.4663488244742905  C 42.10888383469628 0.4663488244742905  33.17815588492992 9.39629917494158  33.17815588492992 20.374446079147187  Z M 19.907879526869177 61.845527416764014  C 19.907879526869177 62.76286130987149  20.6490327467874 63.50399120181075  21.566421071845806 63  L 34.83693070969627 63  C 36.77183104556075 63.50399120181075  40.06146488025701 65.9734910557827  42.965176182827115 68.14835853533879  C 46.60410762266356 70.87905399386682  50.04257396320095 73.45788430928738  53.08329826226637 73.45788430928738  L 63.037346889602816 73.45788430928738  C 65.55544669976636 73.45788430928738  66.80994764894862 74.60002215975467  66.84027402161217 74.63034853241822  C 67.16528720064254 74.9553617114486  67.59053292932245 75.11634809433411  68.01577088200936 75.11634809433411  C 68.43798397342292 75.11634809433411  68.86319859813085 74.9553617114486  69.18823510514021 74.63034853241822  C 69.83522104994161 73.98336258761682  69.83522104994161 72.93238270297898  69.18823510514021 72.28542008615653  C 68.96953530227806 72.06367987003505  66.92837602219629 70.14095673919391  63.037269129672914 70.14095673919391  L 53.083220502336474 70.14095673919391  C 51.14832016647198 70.14095673919391  47.858686331775715 67.67145688522197  44.95497502920563 65.49658940566589  C 41.31604358936917 62.76589394713784  37.87757724883179 60.18706363171729  34.836852949766374 60  L 21.566343311915904 60  C 20.64900941880843 60.18706363171729  19.907879526869177 60.92820907564251  19.907879526869177 61.845527416764014  Z M 98.64276343457944 70.14095673919391  C 96.8141609228972 66.96982903767523  92.74094027453272 65.8853890551986  89.6824867114486 67.65629369889018  L 70.59164632009347 76.95093812061916  C 67.62098371787384 78.43319790449766  64.62598225759348 78.43319790449766  58.062188814252345 78.43319790449766  C 51.64396195969627 78.43319790449766  41.84224503504674 76.81423616384346  41.74504512266356 76.79596258031542  C 40.83377650408879 76.64712229848129  39.9863487879673 77.25766216413551  39.834483644859816 78.15979399094626  C 39.685643363025704 79.0649973349883  40.296183228679915 79.91849032564251  41.19831505549067 80.07035546875  C 41.61141468311917 80.14021810017522  51.36775868866824 81.75315811185747  58.06288865362151 81.75315811185747  C 64.94891924649534 81.75315811185747  68.40573693049066 81.75315811185747  72.05967603679908 79.92455560017522  L 91.23838514894861 70.5840328198014  C 92.006870984229 70.14056016355138  92.8998815712617 70.02513332359813  93.75648495911216 70.25294659024532  C 94.61308834696264 70.4807598568925  95.32987938084113 71.03054588931073  95.77031162383179 71.79904727657708  C 96.21378428008178 72.56753311185746  96.33225153329441 73.46054369889016  96.10139785338787 74.31714708674062  C 95.87358458674066 75.17071783732476  95.32683896758178 75.88750887120325  94.50972984813086 76.35834524678735  L 72.08065566588785 90.31858546290886  C 72.03509379015772 90.34896082432824  67.24803154205608 93.36521951664719  56.40425379672899 93.36521951664719  C 46.999967873831785 93.36521951664719  32.472080169392534 85.35827953417055  32.26212835864487 85.24319483790886  C 32.11328807681076 85.17029490362148  28.513866457359825 83.41155968896027  21.56702759929908 83.41155968896027  C 20.649693706191606 83.41155968896027  19.908563814252354 84.1527051328855  19.908563814252354 85.070023474007  C 19.908563814252354 85.98432472984811  20.64971703417058 86.72848725905372  21.56702759929908 86.72848725905372  C 27.5994874415888 86.72848725905372  30.7100401577103 88.17738803300233  30.713150554906555 88.17738803300233  C 31.341909572137865 88.52670119012849  46.13761025116824 96.6827691661799  56.40425379672899 96.6827691661799  C 68.37772780373832 96.6827691661799  73.69028621495329 93.2321722765771  73.86680125584112 93.11374390332942  L 96.21656030957945 79.20482524094623  C 97.7505304468458 78.31789548043221  98.85005585572432 76.88719053008177  99.30572904497666 75.17406151431074  C 99.76742862879672 73.46396513580605  99.5305018983645 71.67486466851635  98.6435565858645 70.14089453124998  Z M 8.295289354556086 89.21671170414717  C 8.295289354556086 90.5896410265771  7.177490362149544 91.70440738171727  5.807593676985993 91.70440738171727  C 4.434664354556087 91.70440738171727  3.3168653621495445 90.5896410265771  3.3168653621495445 89.21671170414717  C 3.3168653621495445 87.84681501898362  4.434664354556087 86.72901602657709  5.807593676985993 86.72901602657709  C 7.177490362149544 86.72901602657709  8.295289354556086 87.84681501898362  8.295289354556086 89.21671170414717  Z " fill-rule="nonzero" fill="#013e62" stroke="none" transform="matrix(1 0 0 1 145 351 )" />
  </g>
</svg>